<svg xmlns="http://www.w3.org/2000/svg" class="diagram-root" style="background: #f5f6f6" xmlns:xlink="http://www.w3.org/1999/xlink"><style>.diagram-root { font-family: "Helvetica Neue", sans-serif; font-size: 12px; } .t { overflow: visible; } .t-bg { y: 40; fill: #fff;   } .th { fill: #005aa0;   } .tht { fill: #fff; font-size: 14px;  } .tf { fill: #323c46; overflow: visible; } .tf.pk { fill: #005aa0; font-weight: bold; } .tf.fk { font-weight: bold; } .ty { fill: #adb1b5; font-weight: normal; text-anchor: end; } .r { fill: transparent; stroke: #c3c3c3; stroke-width: 1; } .l { stroke: 1; } .i { fill: #c2c7ce; stroke: #c2c7ce; } .i.ix { fill: #afb3b6; stroke: #000; } .fa { fill: transparent; overflow: visible; } .fa .bg.hover { fill: #f7f7f7; } .c { cy: 12; r: 4; stroke: #d2d2dc; fill: #d2d2dc; } .hr { fill: transparent; stroke: #323c46; stroke-opacity: 0.035; stroke-width: 13; } .dc { stroke: #fa5a3c; fill: #fa5a3c; } .x { stroke: white; stroke-width: 1; } .hl .th { fill: #1b9bff; } .hl .tht {  } .fhl .bg { fill: #e7f4ff; } .fhls .bg {  } .r.hl { stroke: #1b9bff; } .dim { opacity: 0.25; }</style><g class="drawing-wrapper" transform="translate(0) scale(1)"><g class="rs"/><g class="hrs"/><g class="ts"><svg class="t" id="h2876837712" x="30" y="30" width="162.7" height="100"><rect class="th" width="162.7" height="40"/><text class="tht" x="13" y="25">Department</text><rect class="t-bg" y="40" width="162.7" height="60"/><text class="tf" x="13" y="61">Dept_No<tspan class="ty" x="149.7">Charcter</tspan></text><text class="tf" x="13" y="86">Dept_Name<tspan class="ty" x="149.7">Character</tspan></text></svg><svg class="t" id="h3481807290" x="205" y="30" width="158.69" height="150"><rect class="th" width="158.69" height="40"/><text class="tht" x="13" y="25">EmployeeDept</text><rect class="t-bg" y="40" width="158.69" height="110"/><text class="tf" x="13" y="61">Emp_No<tspan class="ty" x="145.69">Character</tspan></text><text class="tf" x="13" y="86">Dept_No<tspan class="ty" x="145.69">Character</tspan></text><text class="tf" x="13" y="111">From_Date<tspan class="ty" x="145.69">Character</tspan></text><text class="tf" x="13" y="136">To_Date<tspan class="ty" x="145.69">Character</tspan></text></svg><svg class="t" id="h3299212598" x="380" y="30" width="155.36" height="200"><rect class="th" width="155.36" height="40"/><text class="tht" x="13" y="25">Employees</text><rect class="t-bg" y="40" width="155.36" height="160"/><text class="tf" x="13" y="61">Emp_No<tspan class="ty" x="142.36">Character</tspan></text><text class="tf" x="13" y="86">Birth_Date<tspan class="ty" x="142.36">Character</tspan></text><text class="tf" x="13" y="111">First_nam<tspan class="ty" x="142.36">Character</tspan></text><text class="tf" x="13" y="136">Last_nam<tspan class="ty" x="142.36">Character</tspan></text><text class="tf" x="13" y="161">Gender<tspan class="ty" x="142.36">Character</tspan></text><text class="tf" x="13" y="186">Hire_Date<tspan class="ty" x="142.36">Character</tspan></text></svg><svg class="t" id="h3858243705" x="555" y="30" width="158.69" height="150"><rect class="th" width="158.69" height="40"/><text class="tht" x="13" y="25">Salaries</text><rect class="t-bg" y="40" width="158.69" height="110"/><text class="tf" x="13" y="61">Emp_No<tspan class="ty" x="145.69">Character</tspan></text><text class="tf" x="13" y="86">Salary<tspan class="ty" x="145.69">Character</tspan></text><text class="tf" x="13" y="111">From_Date<tspan class="ty" x="145.69">Character</tspan></text><text class="tf" x="13" y="136">To_Date<tspan class="ty" x="145.69">Character</tspan></text></svg><svg class="t" id="h3517680912" x="730" y="30" width="158.69" height="150"><rect class="th" width="158.69" height="40"/><text class="tht" x="13" y="25">Titles</text><rect class="t-bg" y="40" width="158.69" height="110"/><text class="tf" x="13" y="61">Emp_No<tspan class="ty" x="145.69">Character</tspan></text><text class="tf" x="13" y="86">Title<tspan class="ty" x="145.69">Character</tspan></text><text class="tf" x="13" y="111">From_Date<tspan class="ty" x="145.69">Character</tspan></text><text class="tf" x="13" y="136">To_Date<tspan class="ty" x="145.69">Character</tspan></text></svg><svg class="t" id="h3102931896" x="905" y="30" width="158.69" height="150"><rect class="th" width="158.69" height="40"/><text class="tht" x="13" y="25">ManagerDept</text><rect class="t-bg" y="40" width="158.69" height="110"/><text class="tf" x="13" y="61">Dept_No<tspan class="ty" x="145.69">Character</tspan></text><text class="tf" x="13" y="86">Emp_No<tspan class="ty" x="145.69">Character</tspan></text><text class="tf" x="13" y="111">From_Date<tspan class="ty" x="145.69">Character</tspan></text><text class="tf" x="13" y="136">To_Date<tspan class="ty" x="145.69">Character</tspan></text></svg></g></g></svg>